<svg id="Layer_1" data-name="Layer 1" xmlns="http://www.w3.org/2000/svg" viewBox="0 0 300.38 29.59">
  <title>peloso_prandini_logov5</title>
  <g>
    <g style="isolation: isolate">
      <path d="M142.88,32.76h13.78a5.26,5.26,0,0,0,1.9-.34,1.79,1.79,0,0,0,1.12-1.11.89.89,0,0,0,0-.66.93.93,0,0,0-.4-.46,2.55,2.55,0,0,0-.74-.26,4.79,4.79,0,0,0-1-.09H143.81L145.08,26h14.73a7,7,0,0,1,4.57,1.28,3.67,3.67,0,0,1,1.11,3.67l-.22.74a7.5,7.5,0,0,1-1.44,2.12,9.26,9.26,0,0,1-2.05,1.56,10,10,0,0,1-2.54.95,13.11,13.11,0,0,1-2.91.32h-9.14L145,43.37h-5.59Z" transform="translate(-2.62 -25.98)" style="fill: #e60000"/>
      <path d="M178,43.37l-6-6.75h-7.11l1.27-3.86H180a5.32,5.32,0,0,0,1.91-.34A1.81,1.81,0,0,0,183,31.31a1,1,0,0,0,0-.66,1,1,0,0,0-.41-.46,2.48,2.48,0,0,0-.73-.26,4.89,4.89,0,0,0-1-.09H167.12L168.39,26h14.72a7,7,0,0,1,4.57,1.28,3.65,3.65,0,0,1,1.12,3.67l-.23.74a7.29,7.29,0,0,1-3.52,3.7,13,13,0,0,1-6,1.25l5.76,6.75Z" transform="translate(-2.62 -25.98)" style="fill: #e60000"/>
      <path d="M200.48,30.19l-9.63,13.18h-5.58L198.09,26h7.54l1.52,17.39h-5.58Z" transform="translate(-2.62 -25.98)" style="fill: #e60000"/>
      <path d="M224,43.37l-7.28-10.79-3.51,10.79h-5.58L213.32,26H219l7.23,10.79L229.77,26h5.59l-5.67,17.39Z" transform="translate(-2.62 -25.98)" style="fill: #e60000"/>
      <path d="M249.17,29.84H235.36L236.63,26H251.4a9.57,9.57,0,0,1,2.82.38,4.62,4.62,0,0,1,1.94,1.1,3.27,3.27,0,0,1,.9,1.78,5.34,5.34,0,0,1-.25,2.43l-2,6a7.5,7.5,0,0,1-1.33,2.44,7.91,7.91,0,0,1-2.07,1.79A9.6,9.6,0,0,1,248.8,43a12.33,12.33,0,0,1-3.06.37H231l1.25-3.86H246a4,4,0,0,0,2.17-.56,3,3,0,0,0,1.23-1.65l1.7-5.25C251.58,30.57,250.93,29.84,249.17,29.84Z" transform="translate(-2.62 -25.98)" style="fill: #e60000"/>
      <path d="M259.85,43.37h-5.58L259.93,26h5.58Z" transform="translate(-2.62 -25.98)" style="fill: #e60000"/>
      <path d="M277.5,43.37l-7.29-10.79-3.5,10.79h-5.59L266.78,26h5.69l7.23,10.79L283.23,26h5.59l-5.66,17.39Z" transform="translate(-2.62 -25.98)" style="fill: #e60000"/>
      <path d="M290,43.37h-5.58L290.09,26h5.58Z" transform="translate(-2.62 -25.98)" style="fill: #e60000"/>
    </g>
    <g style="isolation: isolate">
      <path d="M6.08,32.76H19.86a5.32,5.32,0,0,0,1.91-.34,1.8,1.8,0,0,0,1.11-1.11.94.94,0,0,0,0-.66,1,1,0,0,0-.41-.46,2.55,2.55,0,0,0-.74-.26,4.72,4.72,0,0,0-.95-.09H7L8.29,26H23a7,7,0,0,1,4.57,1.28,3.67,3.67,0,0,1,1.12,3.67l-.23.74A7.5,7.5,0,0,1,27,33.79,9,9,0,0,1,25,35.35a9.88,9.88,0,0,1-2.54.95,13,13,0,0,1-2.91.32H10.39L8.21,43.37H2.62Z" transform="translate(-2.62 -25.98)" style="fill: #fff"/>
      <path d="M29.38,32.76h19.9L48,36.62H33.7l-.94,2.89H47.08l-1.25,3.86H25.93Zm.94-2.92L31.59,26h19.9l-1.27,3.86Z" transform="translate(-2.62 -25.98)" style="fill: #fff"/>
      <path d="M54.64,37.3A1.61,1.61,0,0,0,54.78,39a2.34,2.34,0,0,0,1.79.56H68.22L67,43.37H54.36A9.59,9.59,0,0,1,51.54,43a4.51,4.51,0,0,1-1.94-1.09,3.24,3.24,0,0,1-.91-1.79A5,5,0,0,1,49,37.68L52.76,26h5.56Z" transform="translate(-2.62 -25.98)" style="fill: #fff"/>
      <path d="M72.05,31.67a7.13,7.13,0,0,1,1.31-2.43,8.49,8.49,0,0,1,2.08-1.78,10.21,10.21,0,0,1,2.67-1.1A12.22,12.22,0,0,1,81.17,26h7.46a9.67,9.67,0,0,1,2.84.38,4.66,4.66,0,0,1,2,1.1,3.35,3.35,0,0,1,.91,1.78,5.06,5.06,0,0,1-.24,2.43l-2,6a7.31,7.31,0,0,1-1.33,2.44,8,8,0,0,1-2.08,1.79A9.6,9.6,0,0,1,86.05,43a12.32,12.32,0,0,1-3.08.37H75.51A9.59,9.59,0,0,1,72.69,43a4.51,4.51,0,0,1-1.94-1.09,3.25,3.25,0,0,1-.92-1.79,5,5,0,0,1,.27-2.44ZM86.68,37.3l1.7-5.25a1.63,1.63,0,0,0-.15-1.65,2.35,2.35,0,0,0-1.81-.56H80.89a3.86,3.86,0,0,0-2.16.56,3,3,0,0,0-1.22,1.65l-1.7,5.25A1.61,1.61,0,0,0,76,39a2.34,2.34,0,0,0,1.79.56h5.53A4,4,0,0,0,85.45,39,3,3,0,0,0,86.68,37.3Z" transform="translate(-2.62 -25.98)" style="fill: #fff"/>
      <path d="M92.79,39.51h13.79a5.24,5.24,0,0,0,1.92-.34A1.81,1.81,0,0,0,109.63,38a.77.77,0,0,0-.25-1,2.72,2.72,0,0,0-1.28-.43H101a10.26,10.26,0,0,1-2.66-.32,5.06,5.06,0,0,1-1.93-.95,3.48,3.48,0,0,1-1.07-1.56,3.89,3.89,0,0,1,0-2.12l.23-.74a7.63,7.63,0,0,1,1.46-2.12,8.45,8.45,0,0,1,2-1.55,10.6,10.6,0,0,1,2.53-1,12.3,12.3,0,0,1,2.89-.33h14.73L118,29.84H104.19a5.06,5.06,0,0,0-1.9.34,1.85,1.85,0,0,0-1.14,1.13.86.86,0,0,0,.24,1,2.34,2.34,0,0,0,1.25.43h7.09a10,10,0,0,1,2.69.32,5.19,5.19,0,0,1,1.93.93,3.28,3.28,0,0,1,1.05,1.55,4.07,4.07,0,0,1,0,2.12l-.25.74a8.12,8.12,0,0,1-3.5,3.67,11.16,11.16,0,0,1-5.42,1.28H91.55Z" transform="translate(-2.62 -25.98)" style="fill: #fff"/>
      <path d="M118.66,31.67A7.13,7.13,0,0,1,120,29.24a8.31,8.31,0,0,1,2.08-1.78,10.07,10.07,0,0,1,2.67-1.1,12.22,12.22,0,0,1,3.06-.38h7.46a9.67,9.67,0,0,1,2.84.38,4.56,4.56,0,0,1,1.94,1.1,3.29,3.29,0,0,1,.92,1.78,5.06,5.06,0,0,1-.24,2.43l-2,6a7.5,7.5,0,0,1-1.33,2.44,8,8,0,0,1-2.08,1.79A9.73,9.73,0,0,1,132.66,43a12.32,12.32,0,0,1-3.08.37h-7.46A9.59,9.59,0,0,1,119.3,43a4.55,4.55,0,0,1-2-1.09,3.31,3.31,0,0,1-.91-1.79,4.9,4.9,0,0,1,.27-2.44Zm14.63,5.63,1.7-5.25a1.61,1.61,0,0,0-.16-1.65,2.34,2.34,0,0,0-1.8-.56H127.5a3.81,3.81,0,0,0-2.16.56,3,3,0,0,0-1.22,1.65l-1.7,5.25a1.61,1.61,0,0,0,.14,1.65,2.34,2.34,0,0,0,1.79.56h5.53a4,4,0,0,0,2.17-.56A3,3,0,0,0,133.29,37.3Z" transform="translate(-2.62 -25.98)" style="fill: #fff"/>
    </g>
  </g>
  <g>
    <path d="M4.76,55.49H2.66l.65-3.69h2l-.1.6H3.93l-.16.89H5l-.1.58H3.67l-.18,1H4.87Z" transform="translate(-2.62 -25.98)" style="fill: #fff"/>
    <path d="M16.32,52.49a1.25,1.25,0,0,0-.64-.16c-.38,0-.59.2-.62.41s.12.38.54.59.76.61.68,1.09a1.44,1.44,0,0,1-1.56,1.11,1.79,1.79,0,0,1-.89-.21l.25-.6a1.43,1.43,0,0,0,.77.21c.4,0,.64-.19.69-.46s-.11-.42-.49-.6-.81-.59-.73-1.07a1.39,1.39,0,0,1,1.48-1.07,1.61,1.61,0,0,1,.78.17Z" transform="translate(-2.62 -25.98)" style="fill: #fff"/>
    <path d="M27.7,55.4a2.26,2.26,0,0,1-.85.14c-1.13,0-1.62-.75-1.42-1.85a2.21,2.21,0,0,1,2.18-1.95,1.59,1.59,0,0,1,.75.14l-.24.58a1.37,1.37,0,0,0-1.93,1.19c-.15.84.21,1.28.89,1.28a1.73,1.73,0,0,0,.63-.11Z" transform="translate(-2.62 -25.98)" style="fill: #fff"/>
    <path d="M39.61,55.49h-.76l-.1-1h-1l-.43,1H36.6l1.71-3.69h.91ZM38.75,54l-.08-.84c0-.23,0-.53,0-.75h0l-.3.75L38,54h.8Z" transform="translate(-2.62 -25.98)" style="fill: #fff"/>
    <path d="M49.4,51.84a5.92,5.92,0,0,1,1-.08,1.45,1.45,0,0,1,1,.29.93.93,0,0,1,.22.83A1.54,1.54,0,0,1,50,54.12a1,1,0,0,1-.26,0l-.24,1.38h-.72Zm.42,1.71.25,0a.78.78,0,0,0,.83-.65c.07-.39-.15-.6-.55-.6a1.22,1.22,0,0,0-.32,0Z" transform="translate(-2.62 -25.98)" style="fill: #fff"/>
    <path d="M63.08,55.49h-.76l-.1-1h-1l-.43,1h-.73l1.71-3.69h.91ZM62.22,54l-.08-.84c0-.23,0-.53,0-.75h0l-.3.75-.37.85h.8Z" transform="translate(-2.62 -25.98)" style="fill: #fff"/>
    <path d="M75.85,55.49h-.69l.19-1.44c.07-.49.13-1,.22-1.46h0c-.19.44-.41.93-.61,1.34l-.72,1.49h-.55L73.52,54c0-.42-.08-.92-.09-1.37h0c-.09.47-.21,1-.32,1.47l-.32,1.42h-.66L73,51.78h.89l.16,1.39c0,.45.07.88.08,1.3h0c.16-.41.35-.86.56-1.3l.67-1.39h.89Z" transform="translate(-2.62 -25.98)" style="fill: #fff"/>
    <path d="M87.24,55.49h-2.1l.65-3.69h2l-.1.6h-1.3l-.16.89h1.22l-.1.58H86.15l-.18,1h1.38Z" transform="translate(-2.62 -25.98)" style="fill: #fff"/>
    <path d="M99.18,55.49h-.72L97.92,54a12.64,12.64,0,0,1-.36-1.24h0c-.05.46-.13,1-.24,1.63l-.2,1.13h-.65l.65-3.69h.78l.53,1.5a12,12,0,0,1,.35,1.21h0c0-.47.11-1,.22-1.59l.2-1.11h.65Z" transform="translate(-2.62 -25.98)" style="fill: #fff"/>
    <path d="M111.38,52.41h-.93l-.54,3.08h-.72l.54-3.08h-.92l.11-.61h2.57Z" transform="translate(-2.62 -25.98)" style="fill: #fff"/>
    <path d="M123.21,53.6c-.23,1.29-1,1.95-1.94,1.95s-1.41-.82-1.22-1.89A2.1,2.1,0,0,1,122,51.74C123,51.74,123.38,52.61,123.21,53.6Zm-2.4,0c-.13.73.06,1.32.59,1.32s.92-.59,1-1.34,0-1.31-.58-1.31S120.93,53,120.81,53.64Z" transform="translate(-2.62 -25.98)" style="fill: #fff"/>
    <path d="M134.44,52.49a1.25,1.25,0,0,0-.64-.16c-.38,0-.59.2-.62.41s.12.38.54.59.76.61.68,1.09a1.44,1.44,0,0,1-1.56,1.11,1.79,1.79,0,0,1-.89-.21l.25-.6a1.43,1.43,0,0,0,.77.21c.4,0,.64-.19.69-.46s-.11-.42-.49-.6-.81-.59-.73-1.07a1.39,1.39,0,0,1,1.48-1.07,1.64,1.64,0,0,1,.78.17Z" transform="translate(-2.62 -25.98)" style="fill: #fff"/>
    <path d="M155.21,55.49h-2.1l.65-3.69h2l-.1.6h-1.3l-.16.89h1.22l-.1.58h-1.22l-.18,1h1.38Z" transform="translate(-2.62 -25.98)" style="fill: #fff"/>
    <path d="M166.78,52.49a1.25,1.25,0,0,0-.64-.16c-.38,0-.59.2-.62.41s.12.38.54.59.76.61.68,1.09a1.44,1.44,0,0,1-1.56,1.11,1.79,1.79,0,0,1-.89-.21l.25-.6a1.46,1.46,0,0,0,.77.21c.4,0,.64-.19.69-.46s-.11-.42-.49-.6-.81-.59-.73-1.07a1.39,1.39,0,0,1,1.48-1.07,1.64,1.64,0,0,1,.78.17Z" transform="translate(-2.62 -25.98)" style="fill: #fff"/>
    <path d="M176.39,51.84a5.92,5.92,0,0,1,1-.08,1.45,1.45,0,0,1,1,.29.93.93,0,0,1,.22.83A1.54,1.54,0,0,1,177,54.12a1,1,0,0,1-.26,0l-.24,1.38h-.72Zm.42,1.71.25,0a.78.78,0,0,0,.83-.65c.07-.39-.15-.6-.55-.6a1.22,1.22,0,0,0-.32,0Z" transform="translate(-2.62 -25.98)" style="fill: #fff"/>
    <path d="M190.62,53.6c-.23,1.29-1,1.95-1.94,1.95s-1.41-.82-1.22-1.89a2.1,2.1,0,0,1,1.94-1.92C190.44,51.74,190.8,52.61,190.62,53.6Zm-2.39,0c-.13.73.05,1.32.59,1.32s.92-.59,1.05-1.34,0-1.31-.58-1.31S188.35,53,188.23,53.64Z" transform="translate(-2.62 -25.98)" style="fill: #fff"/>
    <path d="M201.55,53.75c.25.1.35.35.37.73a6.79,6.79,0,0,0,.1,1h-.74a4.69,4.69,0,0,1-.08-.87c0-.48-.14-.62-.48-.62h-.24l-.26,1.5h-.72l.64-3.65a6.57,6.57,0,0,1,1-.08c.47,0,1.42.06,1.24,1a1.24,1.24,0,0,1-.81.92Zm-.68-.29a.72.72,0,0,0,.76-.59c.08-.48-.26-.57-.52-.57a1.35,1.35,0,0,0-.34,0l-.2,1.12h.3Z" transform="translate(-2.62 -25.98)" style="fill: #fff"/>
    <path d="M214,52.41H213l-.54,3.08h-.72l.54-3.08h-.92l.11-.61h2.57Z" transform="translate(-2.62 -25.98)" style="fill: #fff"/>
    <path d="M223.14,51.8h.72l-.65,3.69h-.72Z" transform="translate(-2.62 -25.98)" style="fill: #fff"/>
    <path d="M236,51.8l-1.79,3.69h-.82l-.44-3.69h.79l.14,1.63c0,.44.07.88.07,1.33h0c.16-.44.35-.89.55-1.33l.72-1.63Z" transform="translate(-2.62 -25.98)" style="fill: #fff"/>
    <path d="M247.66,53.6c-.23,1.29-1,1.95-1.94,1.95s-1.41-.82-1.22-1.89a2.1,2.1,0,0,1,1.94-1.92C247.48,51.74,247.83,52.61,247.66,53.6Zm-2.4,0c-.13.73.06,1.32.59,1.32s.92-.59,1.05-1.34,0-1.31-.58-1.31S245.38,53,245.26,53.64Z" transform="translate(-2.62 -25.98)" style="fill: #fff"/>
    <path d="M258.89,52.49a1.25,1.25,0,0,0-.64-.16c-.38,0-.59.2-.62.41s.12.38.54.59.76.61.68,1.09a1.44,1.44,0,0,1-1.56,1.11,1.79,1.79,0,0,1-.89-.21l.25-.6a1.43,1.43,0,0,0,.77.21c.4,0,.64-.19.69-.46s-.11-.42-.49-.6-.81-.59-.73-1.07a1.39,1.39,0,0,1,1.48-1.07,1.64,1.64,0,0,1,.78.17Z" transform="translate(-2.62 -25.98)" style="fill: #fff"/>
  </g>
  <g>
    <path d="M297.88,31.43V27.77h1.56a2.5,2.5,0,0,1,.85.1.86.86,0,0,1,.43.35,1,1,0,0,1,.16.58,1,1,0,0,1-.24.68,1.16,1.16,0,0,1-.72.34,1.84,1.84,0,0,1,.4.31,5,5,0,0,1,.42.59l.45.71h-.88l-.53-.8q-.28-.42-.39-.54a.62.62,0,0,0-.22-.15,1.14,1.14,0,0,0-.37,0h-.15v1.53Zm.74-2.11h.55a3.65,3.65,0,0,0,.66,0,.41.41,0,0,0,.21-.15.45.45,0,0,0,.07-.27.44.44,0,0,0-.1-.3.44.44,0,0,0-.28-.14h-1.12v.91Z" transform="translate(-2.62 -25.98)" style="fill: #e60000"/>
    <path d="M299.41,26A3.59,3.59,0,1,0,303,29.6,3.59,3.59,0,0,0,299.41,26Zm0,6.77a3.18,3.18,0,1,1,3.18-3.18A3.18,3.18,0,0,1,299.41,32.78Z" transform="translate(-2.62 -25.98)" style="fill: #e60000"/>
  </g>
  <rect x="265.04" y="25.91" width="11.03" height="3.68" style="fill: #39b54a"/>
  <rect x="276.08" y="25.91" width="11.03" height="3.68" style="fill: #f7ce26"/>
</svg>
